<?xml version="1.0" encoding="iso-8859-1"?>
<!-- Generator: Adobe Illustrator 16.0.0, SVG Export Plug-In . SVG Version: 6.00 Build 0)  -->
<!DOCTYPE svg PUBLIC "-//W3C//DTD SVG 1.1//EN" "http://www.w3.org/Graphics/SVG/1.1/DTD/svg11.dtd">
<svg version="1.1" id="Capa_1" xmlns="http://www.w3.org/2000/svg" xmlns:xlink="http://www.w3.org/1999/xlink" x="0px" y="0px"
	 width="482.33px" height="482.33px" viewBox="0 0 482.33 482.33" style="enable-background:new 0 0 482.33 482.33;"
	 xml:space="preserve">
<g>
	<path d="M479.937,276.482l-87.486,87.431c-1.247,1.051-2.829,1.663-4.469,1.663l-377.66,46.797C4.623,412.373,0,407.743,0,402.042
		V174.918l0.683-94.796c0.091-5.637,4.685-10.165,10.327-10.165l65.559,3.447c4.667,0,8.758,3.133,9.962,7.636l9.992,37.101H302.83
		c5.702,0,10.333,4.618,10.333,10.323v80.395l-124.896,11.18c-5.979,0.549-11.517,3.272-15.602,7.715L29.859,383.467
		c-1.726,1.874-3.08,3.983-4.101,6.21l37.016-17.313l123.145-134.271c1.165-1.272,2.75-2.047,4.466-2.203l230.566-20.654
		c2.736-0.309,5.45,1.215,6.729,3.7c1.279,2.492,0.924,5.513-0.897,7.637l-28.767,33.515l-155.207,15.804
		c-4.181,0.043-8.278,1.357-11.688,3.743l-131.017,75.272l139.976-65.467c1.338-1.073,3.026-1.62,4.744-1.521l231.055-23.523
		c2.741,0.113,5.196,2.008,6.084,4.661C482.869,271.731,482.061,274.653,479.937,276.482z"/>
</g>
<g>
</g>
<g>
</g>
<g>
</g>
<g>
</g>
<g>
</g>
<g>
</g>
<g>
</g>
<g>
</g>
<g>
</g>
<g>
</g>
<g>
</g>
<g>
</g>
<g>
</g>
<g>
</g>
<g>
</g>
</svg>
